<svg height="512" viewBox="0 0 512 512" width="512" xmlns="http://www.w3.org/2000/svg"><g id="BULINE"><circle cx="256" cy="256" fill="#a99bd4" r="256"/></g><g id="Icons"><path d="m378.27 43.43v423.19a10.29 10.29 0 0 1 -10.27 10.29h-224.42c-1.07 0-10.29-7.46-10.29-10.29v-423.2a10.29 10.29 0 0 1 10.29-10.28h224.42a10.29 10.29 0 0 1 10.27 10.29z" fill="#32314b"/><path d="m196.55 476.91h-53a10.3 10.3 0 0 1 -10.3-10.29v-423.2a10.29 10.29 0 0 1 10.3-10.28h53a10.29 10.29 0 0 0 -10.3 10.28v423.2a10.3 10.3 0 0 0 10.3 10.29z" fill="#27273d"/><circle cx="255.78" cy="445.85" fill="#27273d" r="22.07"/><path d="m133.28 119.29h.01v110.45h-.01z" fill="#27273d"/><path d="m378.27 119.28h8a7.11 7.11 0 0 1 7.11 7.11v15.11a7.11 7.11 0 0 1 -7.11 7.11h-8a0 0 0 0 1 0 0v-29.33a0 0 0 0 1 0 0z" fill="#27273d"/><path d="m393.35 207.51v15.11a7.1 7.1 0 0 1 -7.11 7.12h-8v-29.34h8a7.1 7.1 0 0 1 7.11 7.11z" fill="#27273d"/><path d="m133.28 77.35h52.97v337.24h-52.97z" fill="#41c0e3"/><path d="m378.27 77.35v337.24h-245v-337.24h73.49v5.94a12.42 12.42 0 0 0 12.44 12.42h72.43a12.42 12.42 0 0 0 12.37-12.42v-5.94z" fill="#fff"/><path d="m133.28 77.35h52.97v337.24h-52.97z" fill="#e2e2e2"/><circle cx="255.41" cy="56.67" fill="#27273d" r="12.82"/><circle cx="255.41" cy="56.67" fill="#db1b1b" r="5.23"/><circle cx="358.19" cy="56.67" fill="#404060" r="10.67"/><circle cx="335.6" cy="56.67" fill="#404060" r="8.8"/><g fill="#c1c1c1"><rect height="12" rx="6" width="167.33" x="172.11" y="124.93"/><rect height="12" rx="6" width="75.33" x="172.11" y="147.26"/><rect height="12" rx="6" width="75.33" x="264.11" y="147.26"/><rect height="12" rx="6" width="167.33" x="172.11" y="171.16"/><rect height="12" rx="6" width="75.33" x="172.11" y="193.49"/><rect height="12" rx="6" width="75.33" x="264.11" y="193.49"/><rect height="12" rx="6" width="167.33" x="172.11" y="217.39"/><rect height="12" rx="6" width="167.33" x="172.11" y="239.45"/><rect height="12" rx="6" width="167.33" x="172.11" y="263.61"/><rect height="12" rx="6" width="75.33" x="172.11" y="285.95"/><rect height="12" rx="6" width="75.33" x="264.11" y="285.95"/><rect height="12" rx="6" width="167.33" x="172.11" y="309.84"/><rect height="12" rx="6" width="75.33" x="172.11" y="332.17"/><rect height="12" rx="6" width="75.33" x="264.11" y="332.17"/><rect height="12" rx="6" width="167.33" x="172.11" y="356.07"/><rect height="12" rx="6" width="75.33" x="172.11" y="378.4"/><rect height="12" rx="6" width="28.3" x="264.11" y="378.4"/><rect height="12" rx="6" width="28.3" x="311.15" y="378.4"/></g><circle cx="378.27" cy="315.84" fill="#b0d46c" r="73.19"/><path d="m389.77 388.13a74 74 0 0 1 -11.5.9 73.19 73.19 0 0 1 0-146.38 74 74 0 0 1 11.5.9 73.2 73.2 0 0 0 0 144.58z" fill="#a0bf5c"/><path d="m345.86 356 2.68-13.53q-10-.21-10-8a7.62 7.62 0 0 1 2.49-5.89c1.67-1.52 4.11-2.28 7.35-2.28h3.4l4.12-21.05h-7.5c-3.14 0-5.56-.79-7.28-2.36a7.48 7.48 0 0 1 -2.56-5.75 7.4 7.4 0 0 1 2.49-5.82c1.67-1.47 4.11-2.21 7.35-2.21h10.77l3.41-16.56a34.86 34.86 0 0 1 1.77-6.59 8.1 8.1 0 0 1 2.67-3.61 7.44 7.44 0 0 1 4.45-1.23 7.93 7.93 0 0 1 5.86 2 7.06 7.06 0 0 1 2 5.21q0 .72-1.23 7.31l-2.68 13.45h15.88l3.47-16.56q.72-3.76 1.37-6.08a8.43 8.43 0 0 1 2.35-3.91 7 7 0 0 1 5-1.59 8.12 8.12 0 0 1 5.82 1.95 6.94 6.94 0 0 1 2.06 5.29 23.89 23.89 0 0 1 -.18 3c-.12 1-.27 1.89-.47 2.79l-.36 1.7-2.67 13.6q10.34.21 10.34 8a7.31 7.31 0 0 1 -2.46 5.78q-2.46 2.17-7.31 2.18h-3.69l-4.34 21.05h8q4.84 0 7.31 2.31a7.72 7.72 0 0 1 2.46 5.9 7.42 7.42 0 0 1 -2.42 5.75c-1.62 1.48-4.07 2.21-7.35 2.21h-11.15l-3.4 16.64q-.8 4-1.41 6.15a8.2 8.2 0 0 1 -2.35 3.8 7.05 7.05 0 0 1 -5 1.62 7.9 7.9 0 0 1 -5.72-2 7 7 0 0 1 -2.09-5.28 33.75 33.75 0 0 1 1-7.38l2.68-13.53h-16l-3.4 16.64a37.23 37.23 0 0 1 -2.69 8.88q-1.41 2.71-6 2.71a8 8 0 0 1 -5.78-2 7 7 0 0 1 -2.1-5.28 19.55 19.55 0 0 1 .4-3.73c.22-1.43.45-2.65.64-3.7zm42.32-50.71h-16l-4.27 21.05h16.13z" fill="#fff"/></g></svg>